<svg width="32" height="32" viewBox="0 0 32 32" fill="none" xmlns="http://www.w3.org/2000/svg">
<g id="Group 19866">
<path id="Vector" d="M23.665 13.0151L16.785 5.30508C16.78 5.30008 16.77 5.29508 16.765 5.29008C16.725 5.24508 16.675 5.20507 16.625 5.17007C16.62 5.17007 16.62 5.16508 16.615 5.16008C16.44 5.03508 16.23 4.95508 16 4.95508C15.77 4.95508 15.56 5.03008 15.385 5.16008C15.38 5.16508 15.375 5.17007 15.37 5.17007C15.32 5.20507 15.275 5.24508 15.235 5.29008C15.23 5.29508 15.22 5.30007 15.215 5.31007L8.33501 13.0201C7.95001 13.4551 7.985 14.1151 8.42 14.5051C8.855 14.8901 9.515 14.8551 9.905 14.4201L14.955 8.76008V26.0001C14.955 26.5801 15.425 27.0501 16.005 27.0501C16.585 27.0501 17.055 26.5801 17.055 26.0001V8.75507L22.105 14.4151C22.31 14.6451 22.6 14.7651 22.89 14.7651C23.14 14.7651 23.39 14.6751 23.59 14.5001C24.015 14.1101 24.05 13.4451 23.665 13.0151Z" fill="black"/>
</g>
</svg>
