<svg width="20" height="20" viewBox="0 0 20 20" fill="none" xmlns="http://www.w3.org/2000/svg">
<g id="Icon_Close_01_Default">
<path id="Path 11789" d="M11.2699 10.1564L16.3424 5.08385C16.4889 4.93732 16.5713 4.73858 16.5713 4.53135C16.5713 4.32413 16.4889 4.12539 16.3424 3.97885C16.1959 3.83232 15.9971 3.75 15.7899 3.75C15.5827 3.75 15.3839 3.83232 15.2374 3.97885L10.1655 9.05198L5.09304 3.97948C4.94565 3.83721 4.74829 3.75852 4.54344 3.76036C4.3386 3.76219 4.14268 3.84441 3.99787 3.9893C3.85306 4.13419 3.77095 4.33017 3.76923 4.53501C3.76751 4.73985 3.84631 4.93717 3.98866 5.08448L9.06116 10.157L3.98866 15.2295C3.91403 15.3015 3.85449 15.3877 3.81351 15.483C3.77254 15.5783 3.75096 15.6808 3.75003 15.7846C3.7491 15.8883 3.76884 15.9912 3.80809 16.0872C3.84735 16.1832 3.90533 16.2705 3.97867 16.3438C4.052 16.4172 4.13921 16.4753 4.23521 16.5146C4.33121 16.5539 4.43408 16.5737 4.53782 16.5728C4.64155 16.5719 4.74407 16.5504 4.8394 16.5095C4.93473 16.4686 5.02095 16.4091 5.09304 16.3345L10.1655 11.262L15.238 16.3345C15.3846 16.481 15.5833 16.5633 15.7905 16.5633C15.9978 16.5633 16.1965 16.481 16.343 16.3345C16.4896 16.1879 16.5719 15.9892 16.5719 15.782C16.5719 15.5747 16.4896 15.376 16.343 15.2295L11.2699 10.1564Z" fill="#9C9DA1"/>
</g>
</svg>
